<?xml version="1.0" encoding="UTF-8"?><svg id="Layer_2" xmlns="http://www.w3.org/2000/svg" viewBox="0 0 625.13 625.07"><defs><style>.cls-1{fill:#fff;}</style></defs><path class="cls-1" d="M604.92,201.01h-.01s-.79,.07-.79,.07l.61-.15c-4.68-10.93-9.02-22.04-14.74-32.49-33.7-65.23-91.21-117.78-159.26-145.35C364.39-4.21,288.54-7.33,220.06,13.87c-64.1,19.66-121.25,60.85-160.54,115.12-17.67,24-31.22,50.79-41.73,78.61-.69,2.63-1.44,5.21-2.35,7.77C6.17,242.81,1.56,271.61,.22,300.48c-2.04,54.71,10.33,109.76,35.88,158.22,15.93,29.22,35.88,56.33,60.09,79.24,44.18,42.69,101.33,71.87,161.88,82.31,35.94,6.43,73.1,6.41,109.05,.02,92.12-15.6,175.29-75.65,219.62-157.78l.11,.02c23.3-42.32,36.2-90.06,38.06-138.28,1.62-41.91-5.45-83.92-19.99-123.22ZM212.04,492.24h-74.2V254.8c-.09-1.4-.16-2.8,.99-2.97h73.21v240.41Zm6.92-314.61c-.64,23.2-17.35,35.68-28.69,39.57-29.66,10.19-63.86-14.55-58.37-49.47,2.79-17.82,19.14-32.48,38.58-34.63h0c25.6-2.82,49.29,15.33,48.48,44.53ZM493.01,492.24h0s0,0,0,0h-75.19v-86.07c0-38.18,3.97-81.7-22.75-92.01-15.28-5.89-31.77-2.07-41.55,3.96-18.14,11.18-22.9,41.6-23.2,75.19-.32,35.9,.49,75.42-.54,98.93h-70.25V251.83h71.23v32.65c15.17-20.28,33.49-35.87,64.31-38.58,125.81-11.07,93.81,132.35,97.94,246.34Z"/></svg>